<svg width="62" height="31" viewBox="0 0 62 31" fill="none" xmlns="http://www.w3.org/2000/svg">
<path d="M11.864 3.424H29.688V6.528H11.864V3.424ZM14.008 20.128H27.128V23.136H14.008V20.128ZM18.68 0.831999H22.36V4.832H18.68V0.831999ZM16.952 10.24V12H24.152V10.24H16.952ZM13.56 7.68H27.768V14.592H13.56V7.68ZM18.712 21.952H22.424V27.392C22.424 29.056 22.136 29.92 20.92 30.432C19.736 30.88 18.168 30.912 16.088 30.912C15.96 29.92 15.512 28.608 15.096 27.68C16.312 27.744 17.752 27.744 18.168 27.712C18.584 27.712 18.712 27.648 18.712 27.296V21.952ZM11.576 15.68H29.72V21.184H26.392V18.688H14.744V21.184H11.576V15.68ZM-0.00799996 7.2H9.4V10.72H-0.00799996V7.2ZM3.8 0.831999L7.448 1.184C6.328 7.936 4.664 16.416 3.224 22.208L0.184 20.384C1.432 15.424 2.936 7.136 3.8 0.831999ZM1.464 19.584L3.704 17.024C6.84 19.584 10.904 23.2 12.664 25.728L10.2 28.736C8.536 26.112 4.632 22.272 1.464 19.584ZM8.024 7.2H8.664L9.304 7.136L11.48 7.392C10.968 20.032 8.28 27.008 2.264 30.848C1.784 29.92 0.792 28.544 0.056 27.808C5.144 25.056 7.576 18.112 8.024 7.872V7.2ZM43.864 3.424H61.688V6.528H43.864V3.424ZM46.008 20.128H59.128V23.136H46.008V20.128ZM50.68 0.831999H54.36V4.832H50.68V0.831999ZM48.952 10.24V12H56.152V10.24H48.952ZM45.56 7.68H59.768V14.592H45.56V7.68ZM50.712 21.952H54.424V27.392C54.424 29.056 54.136 29.92 52.92 30.432C51.736 30.88 50.168 30.912 48.088 30.912C47.96 29.92 47.512 28.608 47.096 27.68C48.312 27.744 49.752 27.744 50.168 27.712C50.584 27.712 50.712 27.648 50.712 27.296V21.952ZM43.576 15.68H61.72V21.184H58.392V18.688H46.744V21.184H43.576V15.68ZM31.992 7.2H41.4V10.72H31.992V7.2ZM35.8 0.831999L39.448 1.184C38.328 7.936 36.664 16.416 35.224 22.208L32.184 20.384C33.432 15.424 34.936 7.136 35.8 0.831999ZM33.464 19.584L35.704 17.024C38.84 19.584 42.904 23.2 44.664 25.728L42.2 28.736C40.536 26.112 36.632 22.272 33.464 19.584ZM40.024 7.2H40.664L41.304 7.136L43.48 7.392C42.968 20.032 40.28 27.008 34.264 30.848C33.784 29.92 32.792 28.544 32.056 27.808C37.144 25.056 39.576 18.112 40.024 7.872V7.2Z" fill="#F4F4F6"/>
</svg>
